# xmcd
#
# Track frame offsets:
#	150
#	18078
#	53487
#	71801
#	90632
#	125387
#	139495
#	160765
#	177841
#	205118
#	226923
#	245912
#	265780
#	289245
#	306752
#
# Disc length: 4389 seconds
#
# Revision: 0
# Processed by: cddbd v1.5PL3 Copyright (c) Steve Scherf et al.
# Submitted via: audiograbber 1.83.01
#
DISCID=d111230f
DTITLE=Gazebo - ’иты из 90-х
DYEAR=1900
DGENRE=
TTITLE0=Lunatic
TTITLE1=Love in your eyes
TTITLE2=London-Paris
TTITLE3=Masterpiece
TTITLE4=I lire Chopin
TTITLE5=Wrap the Rock
TTITLE6=Celebration day
TTITLE7=The Rain Tales \\episode 5\\
TTITLE8=The Rain Tales \\episode 6\\
TTITLE9=Holiday
TTITLE10=Trotsry burger
TTITLE11=The sun goes down on milky way
TTITLE12=Diamos are forever
TTITLE13=Au Moulin Rouge
TTITLE14=Rain
EXTD=
EXTT0=
EXTT1=
EXTT2=
EXTT3=
EXTT4=
EXTT5=
EXTT6=
EXTT7=
EXTT8=
EXTT9=
EXTT10=
EXTT11=
EXTT12=
EXTT13=
EXTT14=
PLAYORDER=
